<svg width="21" height="21" viewBox="0 0 21 21" fill="none" xmlns="http://www.w3.org/2000/svg">
<path d="M5.5 7.5H15.5C16.0304 7.5 16.5391 7.71071 16.9142 8.08579C17.2893 8.46086 17.5 8.96957 17.5 9.5V14.5C17.5 15.0304 17.2893 15.5391 16.9142 15.9142C16.5391 16.2893 16.0304 16.5 15.5 16.5H5.5C4.96957 16.5 4.46086 16.2893 4.08579 15.9142C3.71071 15.5391 3.5 15.0304 3.5 14.5V9.5C3.5 8.96957 3.71071 8.46086 4.08579 8.08579C4.46086 7.71071 4.96957 7.5 5.5 7.5ZM9.5 4.5H11.5C12.0304 4.5 12.5391 4.71071 12.9142 5.08579C13.2893 5.46086 13.5 5.96957 13.5 6.5V7.5H7.5V6.5C7.5 5.96957 7.71071 5.46086 8.08579 5.08579C8.46086 4.71071 8.96957 4.5 9.5 4.5Z" stroke="black" stroke-linecap="round" stroke-linejoin="round"/>
</svg>
