<svg width="40" height="40" viewBox="0 0 40 40" fill="none" xmlns="http://www.w3.org/2000/svg">
<path d="M10.2217 35C8.25841 35 6.66675 33.3666 6.66675 31.35V16.68C6.66675 15.5716 7.15842 14.5216 8.00008 13.83L17.7784 5.79997C18.4032 5.28261 19.1889 4.99951 20.0001 4.99951C20.8112 4.99951 21.597 5.28261 22.2217 5.79997L31.9984 13.83C32.8417 14.5216 33.3334 15.5716 33.3334 16.68V31.35C33.3334 33.3666 31.7417 35 29.7784 35H10.2217Z" stroke="black" stroke-width="1.5" stroke-linecap="round" stroke-linejoin="round"/>
<path d="M15.8335 35V25.8333C15.8335 24.9493 16.1847 24.1014 16.8098 23.4763C17.4349 22.8512 18.2828 22.5 19.1668 22.5H20.8335C21.7176 22.5 22.5654 22.8512 23.1905 23.4763C23.8156 24.1014 24.1668 24.9493 24.1668 25.8333V35" stroke="black" stroke-width="1.5" stroke-linecap="round" stroke-linejoin="round"/>
</svg>
