<svg width="40" height="40" viewBox="0 0 40 40" fill="none" xmlns="http://www.w3.org/2000/svg">
<path d="M6.66675 30C6.66675 28.2319 7.36913 26.5362 8.61937 25.286C9.86961 24.0358 11.5653 23.3334 13.3334 23.3334H26.6667C28.4349 23.3334 30.1305 24.0358 31.3808 25.286C32.631 26.5362 33.3334 28.2319 33.3334 30C33.3334 30.8841 32.9822 31.7319 32.3571 32.3571C31.732 32.9822 30.8841 33.3334 30.0001 33.3334H10.0001C9.11603 33.3334 8.26818 32.9822 7.64306 32.3571C7.01794 31.7319 6.66675 30.8841 6.66675 30Z" stroke="black" stroke-width="2" stroke-linejoin="round"/>
<path d="M20 16.6667C22.7614 16.6667 25 14.4281 25 11.6667C25 8.90526 22.7614 6.66669 20 6.66669C17.2386 6.66669 15 8.90526 15 11.6667C15 14.4281 17.2386 16.6667 20 16.6667Z" stroke="black" stroke-width="2"/>
</svg>
